<svg width="31" height="33" viewBox="0 0 31 33" fill="none" xmlns="http://www.w3.org/2000/svg">
<path d="M15.5003 32.8875C14.4674 32.8875 13.419 32.6562 12.602 32.1783L4.12284 27.2912C0.669508 24.9633 0.453674 24.6087 0.453674 20.955V12.0442C0.453674 8.39041 0.654091 8.03583 4.04576 5.73874L12.5865 0.80541C14.2053 -0.135007 16.749 -0.135007 18.3678 0.80541L26.8778 5.70791C30.3311 8.03583 30.547 8.39041 30.547 12.0442V20.9396C30.547 24.5933 30.3465 24.9479 26.9549 27.245L18.414 32.1783C17.5815 32.6562 16.5332 32.8875 15.5003 32.8875ZM15.5003 2.42416C14.8528 2.42416 14.2207 2.54749 13.7736 2.80958L5.29451 7.71208C2.78159 9.40791 2.78159 9.40791 2.78159 12.0442V20.9396C2.78159 23.5758 2.78159 23.5758 5.35617 25.3179L13.7736 30.1742C14.6832 30.6983 16.3328 30.6983 17.2424 30.1742L25.7215 25.2717C28.219 23.5758 28.219 23.5758 28.219 20.9396V12.0442C28.219 9.40791 28.219 9.40791 25.6445 7.66583L17.227 2.80958C16.7799 2.54749 16.1478 2.42416 15.5003 2.42416Z" fill="black"/>
</svg>
