<svg width="31" height="33" viewBox="0 0 31 33" fill="none" xmlns="http://www.w3.org/2000/svg">
<rect width="31" height="33" fill="#E5E5E5"/>
<g clip-path="url(#clip0_2_2)">
<rect width="1440" height="934" transform="translate(-31 -129)" fill="white"/>
<g filter="url(#filter0_d_2_2)">
<rect x="-31" y="-39" width="306" height="1198" fill="white"/>
</g>
<path d="M15.5003 32.8875C14.4674 32.8875 13.419 32.6562 12.602 32.1783L4.12284 27.2912C0.669508 24.9633 0.453674 24.6087 0.453674 20.955V12.0442C0.453674 8.39041 0.654091 8.03583 4.04576 5.73874L12.5865 0.80541C14.2053 -0.135007 16.749 -0.135007 18.3678 0.80541L26.8778 5.70791C30.3311 8.03583 30.547 8.39041 30.547 12.0442V20.9396C30.547 24.5933 30.3465 24.9479 26.9549 27.245L18.414 32.1783C17.5815 32.6562 16.5332 32.8875 15.5003 32.8875ZM15.5003 2.42416C14.8528 2.42416 14.2207 2.54749 13.7736 2.80958L5.29451 7.71208C2.78159 9.40791 2.78159 9.40791 2.78159 12.0442V20.9396C2.78159 23.5758 2.78159 23.5758 5.35617 25.3179L13.7736 30.1742C14.6832 30.6983 16.3328 30.6983 17.2424 30.1742L25.7215 25.2717C28.219 23.5758 28.219 23.5758 28.219 20.9396V12.0442C28.219 9.40791 28.219 9.40791 25.6445 7.66583L17.227 2.80958C16.7799 2.54749 16.1478 2.42416 15.5003 2.42416Z" fill="black"/>
<path d="M15.5 22.2812C12.3088 22.2812 9.71875 19.6912 9.71875 16.5C9.71875 13.3088 12.3088 10.7188 15.5 10.7188C18.6912 10.7188 21.2812 13.3088 21.2812 16.5C21.2812 19.6912 18.6912 22.2812 15.5 22.2812ZM15.5 13.0312C13.5883 13.0312 12.0312 14.5883 12.0312 16.5C12.0312 18.4117 13.5883 19.9688 15.5 19.9688C17.4117 19.9688 18.9688 18.4117 18.9688 16.5C18.9688 14.5883 17.4117 13.0312 15.5 13.0312Z" fill="black"/>
</g>
<defs>
<filter id="filter0_d_2_2" x="-91" y="-89" width="426" height="1318" filterUnits="userSpaceOnUse" color-interpolation-filters="sRGB">
<feFlood flood-opacity="0" result="BackgroundImageFix"/>
<feColorMatrix in="SourceAlpha" type="matrix" values="0 0 0 0 0 0 0 0 0 0 0 0 0 0 0 0 0 0 127 0" result="hardAlpha"/>
<feOffset dy="10"/>
<feGaussianBlur stdDeviation="30"/>
<feComposite in2="hardAlpha" operator="out"/>
<feColorMatrix type="matrix" values="0 0 0 0 0.885625 0 0 0 0 0.92625 0 0 0 0 0.975 0 0 0 0.5 0"/>
<feBlend mode="normal" in2="BackgroundImageFix" result="effect1_dropShadow_2_2"/>
<feBlend mode="normal" in="SourceGraphic" in2="effect1_dropShadow_2_2" result="shape"/>
</filter>
<clipPath id="clip0_2_2">
<rect width="1440" height="934" fill="white" transform="translate(-31 -129)"/>
</clipPath>
</defs>
</svg>
