<svg width="22" height="22" viewBox="0 0 22 22" fill="none" xmlns="http://www.w3.org/2000/svg">
<rect width="22" height="22" fill="#E5E5E5"/>
<g clip-path="url(#clip0_2_2)">
<rect width="1440" height="934" transform="translate(-40 -230)" fill="white"/>
<g filter="url(#filter0_d_2_2)">
<rect x="-40" y="-140" width="306" height="1198" fill="white"/>
</g>
<path d="M8 21H14C19 21 21 19 21 14V8C21 3 19 1 14 1H8C3 1 1 3 1 8V14C1 19 3 21 8 21Z" stroke="#1A3447" stroke-width="1.5" stroke-linecap="round" stroke-linejoin="round"/>
<path d="M15.28 12.6101C14.15 13.7401 12.53 14.0901 11.1 13.6401L8.51001 16.2201C8.33001 16.4101 7.96001 16.5301 7.69001 16.4901L6.49001 16.3301C6.09001 16.2801 5.73001 15.9001 5.67001 15.5101L5.51001 14.3101C5.47001 14.0501 5.60001 13.6801 5.78001 13.4901L8.36001 10.9101C7.92001 9.48013 8.26001 7.86014 9.39 6.73014C11.01 5.11014 13.65 5.11014 15.28 6.73014C16.9 8.34014 16.9 10.9801 15.28 12.6101Z" stroke="#1A3447" stroke-width="1.5" stroke-miterlimit="10" stroke-linecap="round" stroke-linejoin="round"/>
<path d="M9.45 15.2799L8.59998 14.4199" stroke="#1A3447" stroke-width="1.5" stroke-miterlimit="10" stroke-linecap="round" stroke-linejoin="round"/>
<path d="M12.3945 9.7002H12.4035" stroke="#1A3447" stroke-width="2" stroke-linecap="round" stroke-linejoin="round"/>
</g>
<defs>
<filter id="filter0_d_2_2" x="-100" y="-190" width="426" height="1318" filterUnits="userSpaceOnUse" color-interpolation-filters="sRGB">
<feFlood flood-opacity="0" result="BackgroundImageFix"/>
<feColorMatrix in="SourceAlpha" type="matrix" values="0 0 0 0 0 0 0 0 0 0 0 0 0 0 0 0 0 0 127 0" result="hardAlpha"/>
<feOffset dy="10"/>
<feGaussianBlur stdDeviation="30"/>
<feComposite in2="hardAlpha" operator="out"/>
<feColorMatrix type="matrix" values="0 0 0 0 0.885625 0 0 0 0 0.92625 0 0 0 0 0.975 0 0 0 0.5 0"/>
<feBlend mode="normal" in2="BackgroundImageFix" result="effect1_dropShadow_2_2"/>
<feBlend mode="normal" in="SourceGraphic" in2="effect1_dropShadow_2_2" result="shape"/>
</filter>
<clipPath id="clip0_2_2">
<rect width="1440" height="934" fill="white" transform="translate(-40 -230)"/>
</clipPath>
</defs>
</svg>
