<svg width="22" height="22" viewBox="0 0 22 22" fill="none" xmlns="http://www.w3.org/2000/svg">
<rect width="22" height="22" fill="#E5E5E5"/>
<g clip-path="url(#clip0_2_2)">
<rect width="1440" height="934" transform="translate(-42 -359)" fill="white"/>
<g filter="url(#filter0_d_2_2)">
<rect x="-42" y="-269" width="306" height="1198" fill="white"/>
</g>
<rect x="-14" y="-13" width="250" height="46" rx="8" fill="#1A3447"/>
<g clip-path="url(#clip1_2_2)">
<path d="M11 22.7503C10.37 22.7503 9.78 22.5104 9.34 22.0604L7.82001 20.5404C7.70001 20.4204 7.38 20.2904 7.22 20.2904H5.06C3.76 20.2904 2.70999 19.2403 2.70999 17.9403V15.7804C2.70999 15.6204 2.57999 15.3004 2.45999 15.1804L0.94 13.6604C0.5 13.2204 0.25 12.6303 0.25 12.0003C0.25 11.3703 0.49 10.7803 0.94 10.3403L2.45999 8.82028C2.57999 8.70028 2.70999 8.3803 2.70999 8.2203V6.06039C2.70999 4.76039 3.76 3.71029 5.06 3.71029H7.22C7.38 3.71029 7.70001 3.58029 7.82001 3.46029L9.34 1.94027C10.22 1.06027 11.78 1.06027 12.66 1.94027L14.18 3.46029C14.3 3.58029 14.62 3.71029 14.78 3.71029H16.94C18.24 3.71029 19.29 4.76039 19.29 6.06039V8.2203C19.29 8.3803 19.42 8.70028 19.54 8.82028L21.06 10.3403C21.5 10.7803 21.75 11.3703 21.75 12.0003C21.75 12.6303 21.51 13.2204 21.06 13.6604L19.54 15.1804C19.42 15.3004 19.29 15.6204 19.29 15.7804V17.9403C19.29 19.2403 18.24 20.2904 16.94 20.2904H14.78C14.62 20.2904 14.3 20.4204 14.18 20.5404L12.66 22.0604C12.22 22.5104 11.63 22.7503 11 22.7503ZM3.51999 14.1203C3.91999 14.5203 4.20999 15.2204 4.20999 15.7804V17.9403C4.20999 18.4103 4.59 18.7904 5.06 18.7904H7.22C7.78 18.7904 8.48001 19.0803 8.88 19.4803L10.4 21.0003C10.72 21.3203 11.28 21.3203 11.6 21.0003L13.12 19.4803C13.52 19.0803 14.22 18.7904 14.78 18.7904H16.94C17.41 18.7904 17.79 18.4103 17.79 17.9403V15.7804C17.79 15.2204 18.08 14.5203 18.48 14.1203L20 12.6003C20.16 12.4403 20.25 12.2303 20.25 12.0003C20.25 11.7703 20.16 11.5604 20 11.4004L18.48 9.88034C18.08 9.48034 17.79 8.7803 17.79 8.2203V6.06039C17.79 5.59039 17.41 5.21029 16.94 5.21029H14.78C14.22 5.21029 13.52 4.92035 13.12 4.52035L11.6 3.00033C11.28 2.68033 10.72 2.68033 10.4 3.00033L8.88 4.52035C8.48001 4.92035 7.78 5.21029 7.22 5.21029H5.06C4.59 5.21029 4.20999 5.59039 4.20999 6.06039V8.2203C4.20999 8.7803 3.91999 9.48034 3.51999 9.88034L2 11.4004C1.84 11.5604 1.75 11.7703 1.75 12.0003C1.75 12.2303 1.84 12.4403 2 12.6003L3.51999 14.1203Z" fill="#1A3447"/>
<path d="M14.0002 16C13.4402 16 12.9902 15.55 12.9902 15C12.9902 14.45 13.4402 14 13.9902 14C14.5402 14 14.9902 14.45 14.9902 15C14.9902 15.55 14.5502 16 14.0002 16Z" fill="#1A3447"/>
<path d="M8.01001 10C7.45001 10 7 9.55 7 9C7 8.45 7.45 8 8 8C8.55 8 9 8.45 9 9C9 9.55 8.56001 10 8.01001 10Z" fill="#1A3447"/>
<path d="M7.99945 15.7495C7.80945 15.7495 7.61945 15.6795 7.46945 15.5295C7.17945 15.2395 7.17945 14.7595 7.46945 14.4695L13.4695 8.46945C13.7595 8.17945 14.2395 8.17945 14.5295 8.46945C14.8195 8.75945 14.8195 9.23951 14.5295 9.52951L8.52945 15.5295C8.37945 15.6795 8.18945 15.7495 7.99945 15.7495Z" fill="#1A3447"/>
<path d="M11 21.7503C10.37 21.7503 9.78 21.5104 9.34 21.0604L7.82001 19.5404C7.70001 19.4204 7.38 19.2904 7.22 19.2904H5.06C3.76 19.2904 2.70999 18.2403 2.70999 16.9403V14.7804C2.70999 14.6204 2.57999 14.3004 2.45999 14.1804L0.94 12.6604C0.5 12.2204 0.25 11.6303 0.25 11.0003C0.25 10.3703 0.49 9.7803 0.94 9.3403L2.45999 7.82028C2.57999 7.70028 2.70999 7.3803 2.70999 7.2203V5.06039C2.70999 3.76039 3.76 2.71029 5.06 2.71029H7.22C7.38 2.71029 7.70001 2.58029 7.82001 2.46029L9.34 0.940273C10.22 0.0602734 11.78 0.0602734 12.66 0.940273L14.18 2.46029C14.3 2.58029 14.62 2.71029 14.78 2.71029H16.94C18.24 2.71029 19.29 3.76039 19.29 5.06039V7.2203C19.29 7.3803 19.42 7.70028 19.54 7.82028L21.06 9.3403C21.5 9.7803 21.75 10.3703 21.75 11.0003C21.75 11.6303 21.51 12.2204 21.06 12.6604L19.54 14.1804C19.42 14.3004 19.29 14.6204 19.29 14.7804V16.9403C19.29 18.2403 18.24 19.2904 16.94 19.2904H14.78C14.62 19.2904 14.3 19.4204 14.18 19.5404L12.66 21.0604C12.22 21.5104 11.63 21.7503 11 21.7503ZM3.51999 13.1203C3.91999 13.5203 4.20999 14.2204 4.20999 14.7804V16.9403C4.20999 17.4103 4.59 17.7904 5.06 17.7904H7.22C7.78 17.7904 8.48001 18.0803 8.88 18.4803L10.4 20.0003C10.72 20.3203 11.28 20.3203 11.6 20.0003L13.12 18.4803C13.52 18.0803 14.22 17.7904 14.78 17.7904H16.94C17.41 17.7904 17.79 17.4103 17.79 16.9403V14.7804C17.79 14.2204 18.08 13.5203 18.48 13.1203L20 11.6003C20.16 11.4403 20.25 11.2303 20.25 11.0003C20.25 10.7703 20.16 10.5604 20 10.4004L18.48 8.88034C18.08 8.48034 17.79 7.7803 17.79 7.2203V5.06039C17.79 4.59039 17.41 4.21029 16.94 4.21029H14.78C14.22 4.21029 13.52 3.92035 13.12 3.52035L11.6 2.00033C11.28 1.68033 10.72 1.68033 10.4 2.00033L8.88 3.52035C8.48001 3.92035 7.78 4.21029 7.22 4.21029H5.06C4.59 4.21029 4.20999 4.59039 4.20999 5.06039V7.2203C4.20999 7.7803 3.91999 8.48034 3.51999 8.88034L2 10.4004C1.84 10.5604 1.75 10.7703 1.75 11.0003C1.75 11.2303 1.84 11.4403 2 11.6003L3.51999 13.1203Z" fill="white"/>
<path d="M14.0002 15C13.4402 15 12.9902 14.55 12.9902 14C12.9902 13.45 13.4402 13 13.9902 13C14.5402 13 14.9902 13.45 14.9902 14C14.9902 14.55 14.5502 15 14.0002 15Z" fill="white"/>
<path d="M8.01001 9C7.45001 9 7 8.55 7 8C7 7.45 7.45 7 8 7C8.55 7 9 7.45 9 8C9 8.55 8.56001 9 8.01001 9Z" fill="white"/>
<path d="M7.99945 14.7495C7.80945 14.7495 7.61945 14.6795 7.46945 14.5295C7.17945 14.2395 7.17945 13.7595 7.46945 13.4695L13.4695 7.46945C13.7595 7.17945 14.2395 7.17945 14.5295 7.46945C14.8195 7.75945 14.8195 8.23951 14.5295 8.52951L8.52945 14.5295C8.37945 14.6795 8.18945 14.7495 7.99945 14.7495Z" fill="white"/>
</g>
</g>
<defs>
<filter id="filter0_d_2_2" x="-102" y="-319" width="426" height="1318" filterUnits="userSpaceOnUse" color-interpolation-filters="sRGB">
<feFlood flood-opacity="0" result="BackgroundImageFix"/>
<feColorMatrix in="SourceAlpha" type="matrix" values="0 0 0 0 0 0 0 0 0 0 0 0 0 0 0 0 0 0 127 0" result="hardAlpha"/>
<feOffset dy="10"/>
<feGaussianBlur stdDeviation="30"/>
<feComposite in2="hardAlpha" operator="out"/>
<feColorMatrix type="matrix" values="0 0 0 0 0.885625 0 0 0 0 0.92625 0 0 0 0 0.975 0 0 0 0.5 0"/>
<feBlend mode="normal" in2="BackgroundImageFix" result="effect1_dropShadow_2_2"/>
<feBlend mode="normal" in="SourceGraphic" in2="effect1_dropShadow_2_2" result="shape"/>
</filter>
<clipPath id="clip0_2_2">
<rect width="1440" height="934" fill="white" transform="translate(-42 -359)"/>
</clipPath>
<clipPath id="clip1_2_2">
<rect width="24" height="24" fill="white" transform="translate(-1)"/>
</clipPath>
</defs>
</svg>
