<svg width="21" height="20" viewBox="0 0 21 20" fill="none" xmlns="http://www.w3.org/2000/svg">
<rect width="21" height="20" fill="#E5E5E5"/>
<g clip-path="url(#clip0_2_2)">
<rect width="1440" height="934" transform="translate(-40 -423)" fill="white"/>
<g filter="url(#filter0_d_2_2)">
<rect x="-40" y="-333" width="306" height="1198" fill="white"/>
</g>
<path d="M9.7516 14.8604V16.8904C9.7516 18.6104 8.15158 20.0004 6.18158 20.0004C4.21158 20.0004 2.60156 18.6104 2.60156 16.8904V14.8604C2.60156 16.5804 4.20158 17.8004 6.18158 17.8004C8.15158 17.8004 9.7516 16.5704 9.7516 14.8604Z" stroke="#1A3447" stroke-width="1.5" stroke-linecap="round" stroke-linejoin="round"/>
<path d="M9.7501 12.1098C9.7501 12.6098 9.6101 13.0698 9.3701 13.4698C8.78006 14.4398 7.57004 15.0498 6.17004 15.0498C4.77004 15.0498 3.56003 14.4298 2.97003 13.4698C2.73003 13.0698 2.59009 12.6098 2.59009 12.1098C2.59009 11.2498 2.99007 10.4798 3.63007 9.91977C4.28007 9.34977 5.17003 9.00977 6.16003 9.00977C7.15003 9.00977 8.04006 9.35977 8.69006 9.91977C9.3501 10.4698 9.7501 11.2498 9.7501 12.1098Z" stroke="#1A3447" stroke-width="1.5" stroke-linecap="round" stroke-linejoin="round"/>
<path d="M9.7516 12.11V14.86C9.7516 16.58 8.15158 17.8 6.18158 17.8C4.21158 17.8 2.60156 16.57 2.60156 14.86V12.11C2.60156 10.39 4.20158 9 6.18158 9C7.17158 9 8.06161 9.35 8.71161 9.91C9.3516 10.47 9.7516 11.25 9.7516 12.11Z" stroke="#1A3447" stroke-width="1.5" stroke-linecap="round" stroke-linejoin="round"/>
<path d="M21 8.96966V11.0298C21 11.5798 20.56 12.0297 20 12.0497H18.0399C16.9599 12.0497 15.97 11.2597 15.88 10.1797C15.82 9.54966 16.0599 8.95966 16.4799 8.54966C16.8499 8.16966 17.36 7.94971 17.92 7.94971H20C20.56 7.96971 21 8.41966 21 8.96966Z" stroke="#1A3447" stroke-width="1.5" stroke-linecap="round" stroke-linejoin="round"/>
<path d="M1 8.5V6.5C1 3.78 2.64 1.88 5.19 1.56C5.45 1.52 5.72 1.5 6 1.5H15C15.26 1.5 15.51 1.50999 15.75 1.54999C18.33 1.84999 20 3.76 20 6.5V7.95001H17.92C17.36 7.95001 16.85 8.17 16.48 8.55C16.06 8.96 15.82 9.55 15.88 10.18C15.97 11.26 16.96 12.05 18.04 12.05H20V13.5C20 16.5 18 18.5 15 18.5H12.5" stroke="#1A3447" stroke-width="1.5" stroke-linecap="round" stroke-linejoin="round"/>
</g>
<defs>
<filter id="filter0_d_2_2" x="-100" y="-383" width="426" height="1318" filterUnits="userSpaceOnUse" color-interpolation-filters="sRGB">
<feFlood flood-opacity="0" result="BackgroundImageFix"/>
<feColorMatrix in="SourceAlpha" type="matrix" values="0 0 0 0 0 0 0 0 0 0 0 0 0 0 0 0 0 0 127 0" result="hardAlpha"/>
<feOffset dy="10"/>
<feGaussianBlur stdDeviation="30"/>
<feComposite in2="hardAlpha" operator="out"/>
<feColorMatrix type="matrix" values="0 0 0 0 0.885625 0 0 0 0 0.92625 0 0 0 0 0.975 0 0 0 0.5 0"/>
<feBlend mode="normal" in2="BackgroundImageFix" result="effect1_dropShadow_2_2"/>
<feBlend mode="normal" in="SourceGraphic" in2="effect1_dropShadow_2_2" result="shape"/>
</filter>
<clipPath id="clip0_2_2">
<rect width="1440" height="934" fill="white" transform="translate(-40 -423)"/>
</clipPath>
</defs>
</svg>
